<svg width="1em" height="1em" viewBox="0 0 24 24" fill="currentColor" xmlns="http://www.w3.org/2000/svg" class=""><g clip-path="url(#surveillance-filled-icon_svg__a)"><path fill-rule="evenodd" clip-rule="evenodd" d="M4.29 8h15.45a1.25 1.25 0 0 1 1.29 1.26v2.91a8.91 8.91 0 0 1-9 8.83 8.909 8.909 0 0 1-9-8.83V9.26A1.26 1.26 0 0 1 4.29 8Zm5.235 8.975a3.5 3.5 0 1 0 4.95-4.95 3.5 3.5 0 0 0-4.95 4.95Zm.707-4.243a2.5 2.5 0 1 1 3.536 3.537 2.5 2.5 0 0 1-3.536-3.537Zm.884 2.652c.235.234.553.366.884.366a1.25 1.25 0 1 0 0-2.5 1.25 1.25 0 0 0-.884 2.134ZM12 15.25a.75.75 0 1 0 0-1.5.75.75 0 0 0 0 1.5ZM3 3h18a1 1 0 0 1 1 1v2a1 1 0 0 1-1 1H3a1 1 0 0 1-1-1V4a1 1 0 0 1 1-1Z" fill="currentColor"></path></g><defs><clipPath id="surveillance-filled-icon_svg__a"><path fill="currentColor" transform="translate(2 2)" d="M0 0h20v20H0z"></path></clipPath></defs></svg>