<svg width="1em" height="1em" viewBox="0 0 24 24" fill="none" xmlns="http://www.w3.org/2000/svg" class="wt-badge-pre-i"><path fill-rule="evenodd" clip-rule="evenodd" d="M18.561 5.516A8.543 8.543 0 0 0 13.426 3a.572.572 0 0 0-.628.496.57.57 0 0 0 .497.626 7.408 7.408 0 0 1 4.442 2.18 7.73 7.73 0 0 1 2.136 4.546.56.56 0 0 0 .562.495h.066a.572.572 0 0 0 .497-.617 8.851 8.851 0 0 0-2.437-5.21ZM6.117 5.002a.506.506 0 0 0-.43-.178.544.544 0 0 0-.413.196 9.774 9.774 0 0 0-2.25 5.613 9.91 9.91 0 0 0 1.481 5.911c.28.415.593.806.937 1.17l-2.277 2.291a.56.56 0 0 0 0 .795.591.591 0 0 0 .622.116.563.563 0 0 0 .184-.125l2.221-2.264a9.428 9.428 0 0 0 2.999 1.871c1.05.398 2.165.6 3.289.599.91 0 1.817-.132 2.69-.393a9.19 9.19 0 0 0 2.988-1.543.552.552 0 0 0 .225-.393.607.607 0 0 0-.15-.43L6.117 5.001Zm10.205 5.902a3.972 3.972 0 0 0-1.069-2.058 3.806 3.806 0 0 0-2.005-1.094.563.563 0 0 1-.44-.665.57.57 0 0 1 .665-.44c.987.2 1.89.697 2.586 1.423a5.095 5.095 0 0 1 1.368 2.628.559.559 0 0 1-.45.655h-.102a.572.572 0 0 1-.553-.45Z" fill="#000000"></path></svg>