<svg width="1em" height="1em" viewBox="0 0 24 24" fill="none" xmlns="http://www.w3.org/2000/svg" class="wt-badge-pre-i"><path fill-rule="evenodd" clip-rule="evenodd" d="M12 7.054a.63.63 0 0 0 .43-.19A5 5 0 0 1 16 5.249a4.987 4.987 0 0 1 3.56 1.615.6.6 0 0 0 1.027-.426.603.603 0 0 0-.177-.427 6.17 6.17 0 0 0-4.43-2.006 6.164 6.164 0 0 0-4.44 2.006.603.603 0 0 0 0 .853.631.631 0 0 0 .46.19Zm7.6 6.932h-3v-3.01a.603.603 0 0 0-.6-.601.6.6 0 0 0-.6.602v3.009h-11A1.398 1.398 0 0 0 3 15.39v3.21a1.406 1.406 0 0 0 1.4 1.405h15.2A1.406 1.406 0 0 0 21 18.6v-3.21a1.398 1.398 0 0 0-1.4-1.404ZM6.31 17.597a.599.599 0 0 1-.6-.602.603.603 0 0 1 .6-.601.6.6 0 0 1 .6.601.603.603 0 0 1-.6.602Zm3 0a.599.599 0 0 1-.6-.602.603.603 0 0 1 .6-.601.6.6 0 0 1 .6.601.603.603 0 0 1-.6.602Zm3 0a.6.6 0 0 1-.6-.602.603.603 0 0 1 .6-.601.6.6 0 0 1 .6.601.603.603 0 0 1-.6.602Zm1.16-9.033a.6.6 0 0 1 .13-.196 3.494 3.494 0 0 1 4.79.04.601.601 0 0 1 .05.853.591.591 0 0 1-.85 0 2.277 2.277 0 0 0-3.15 0 .55.55 0 0 1-.4.16.599.599 0 0 1-.44-.2.6.6 0 0 1-.13-.657Z" fill="#000000"></path></svg>