<svg width="1em" height="1em" viewBox="0 0 81 24" fill="none" xmlns="http://www.w3.org/2000/svg" class="wt-sf-icon"><path d="M80.463 21.167a2.298 2.298 0 0 1-2.302 2.298H2.84a2.303 2.303 0 0 1-2.305-2.298V2.836A2.304 2.304 0 0 1 2.84.534h75.322a2.302 2.302 0 0 1 2.301 2.302v18.33Z" fill="#fff"></path><path d="M78.161 24H2.84A2.84 2.84 0 0 1 0 21.167V2.837A2.84 2.84 0 0 1 2.839 0H78.16a2.843 2.843 0 0 1 2.838 2.836v18.33A2.839 2.839 0 0 1 78.161 24Z" fill="#A6A6A6"></path><path d="M80.463 21.167a2.298 2.298 0 0 1-2.302 2.298H2.84a2.303 2.303 0 0 1-2.305-2.298V2.836A2.304 2.304 0 0 1 2.84.534h75.322a2.302 2.302 0 0 1 2.301 2.302v18.33Z" fill="#000"></path><path d="M18.087 11.874c-.018-1.935 1.584-2.876 1.657-2.92-.907-1.322-2.313-1.502-2.807-1.517-1.18-.124-2.326.707-2.928.707-.613 0-1.54-.695-2.538-.674-1.285.02-2.487.763-3.146 1.918-1.36 2.354-.346 5.814.958 7.717.652.933 1.414 1.973 2.41 1.936.976-.04 1.34-.62 2.518-.62 1.166 0 1.508.62 2.525.597 1.047-.016 1.706-.936 2.336-1.877.753-1.067 1.056-2.12 1.068-2.174-.024-.008-2.033-.776-2.053-3.093Zm-1.921-5.689c.524-.656.883-1.548.784-2.454-.76.034-1.71.525-2.256 1.167-.484.565-.917 1.492-.805 2.363.853.064 1.729-.43 2.277-1.076Z" fill="#fff"></path><path d="M78.161 0H37.816L53.62 24H78.16A2.841 2.841 0 0 0 81 21.165V2.836A2.841 2.841 0 0 0 78.161 0Z" fill="url(#app-store-badge-icon_svg__a)"></path><path d="M32.216 18.908h-1.363l-.747-2.346H27.51l-.71 2.346h-1.328l2.572-7.987h1.589l2.583 7.987Zm-2.335-3.33-.675-2.086c-.072-.213-.206-.715-.403-1.505h-.024c-.08.34-.206.841-.38 1.505l-.663 2.085h2.145Zm8.938.38c0 .979-.266 1.753-.799 2.321-.476.506-1.069.759-1.775.759-.763 0-1.312-.272-1.645-.817v3.022h-1.28V15.04c0-.615-.016-1.246-.048-1.893h1.126l.071.913h.024c.427-.688 1.075-1.031 1.944-1.031.68 0 1.247.268 1.701.805.453.538.68 1.245.68 2.122Zm-1.304.046c0-.56-.126-1.023-.38-1.387a1.311 1.311 0 0 0-1.114-.568c-.316 0-.602.105-.859.314-.257.21-.425.484-.504.824a1.672 1.672 0 0 0-.059.39v.96c0 .418.129.772.386 1.061.256.288.59.433 1 .433.483 0 .858-.187 1.126-.557.27-.372.404-.861.404-1.47Zm7.93-.047c0 .98-.266 1.754-.799 2.322-.477.506-1.07.759-1.776.759-.763 0-1.312-.272-1.645-.817v3.022h-1.28V15.04c0-.615-.016-1.246-.047-1.893h1.125l.072.913h.024c.426-.688 1.074-1.031 1.944-1.031.678 0 1.246.268 1.7.805.453.538.681 1.245.681 2.122Zm-1.305.047c0-.56-.127-1.023-.38-1.387a1.31 1.31 0 0 0-1.113-.568c-.316 0-.603.105-.86.314-.257.21-.425.484-.503.824a1.71 1.71 0 0 0-.06.39v.96c0 .418.129.772.385 1.061.256.288.59.433 1.002.433.483 0 .858-.187 1.126-.557.269-.372.403-.861.403-1.47Zm8.712.663c0 .68-.237 1.233-.71 1.66-.52.465-1.245.699-2.176.699-.86 0-1.549-.166-2.069-.498l.296-1.066a3.561 3.561 0 0 0 1.85.498c.482 0 .857-.11 1.125-.326.268-.217.404-.508.404-.87 0-.325-.112-.597-.333-.818-.221-.221-.587-.427-1.102-.616-1.398-.521-2.099-1.284-2.099-2.288 0-.655.248-1.192.741-1.611.494-.42 1.148-.629 1.962-.629.727 0 1.333.127 1.814.38l-.321 1.043a3.171 3.171 0 0 0-1.535-.367c-.452 0-.806.11-1.06.331a.95.95 0 0 0-.32.724c0 .315.122.577.367.782.213.19.6.395 1.161.616.688.277 1.194.6 1.517.971.327.37.489.834.489 1.385Zm4.243-2.558h-1.41v2.796c0 .711.248 1.066.746 1.066.229 0 .419-.02.569-.06l.035.972c-.252.094-.584.142-.995.142-.506 0-.9-.155-1.186-.463-.284-.309-.427-.825-.427-1.553v-2.903h-.84v-.96h.84v-1.055l1.257-.379v1.434h1.411v.963Zm6.353 1.872c0 .885-.254 1.612-.76 2.18-.528.585-1.232.877-2.109.877-.846 0-1.52-.28-2.021-.84-.502-.562-.753-1.268-.753-2.121 0-.893.26-1.624.776-2.192.518-.57 1.216-.854 2.093-.854.845 0 1.524.281 2.038.842.491.544.736 1.246.736 2.108Zm-1.327.029c0-.528-.114-.98-.343-1.359-.268-.457-.652-.686-1.15-.686-.513 0-.906.229-1.174.686-.229.379-.343.84-.343 1.383 0 .528.114.982.343 1.36.277.457.663.685 1.163.685.49 0 .873-.233 1.15-.697.236-.388.354-.843.354-1.372Zm5.489-1.736a2.227 2.227 0 0 0-.404-.036c-.45 0-.798.17-1.043.51-.213.3-.32.68-.32 1.138v3.022h-1.28v-3.946c.002-.604-.01-1.209-.037-1.813h1.115l.047 1.102h.035c.136-.379.349-.684.64-.913.267-.2.592-.308.926-.308.118 0 .225.008.32.023v1.22Zm5.724 1.482c.003.194-.013.388-.047.58h-3.84c.015.569.2 1.005.557 1.305.324.267.742.402 1.256.402.569 0 1.087-.09 1.554-.272l.2.887c-.545.238-1.188.356-1.93.356-.894 0-1.595-.262-2.106-.787-.509-.525-.764-1.23-.764-2.115 0-.868.237-1.591.712-2.168.497-.616 1.17-.923 2.014-.923.83 0 1.46.307 1.886.923.338.488.508 1.093.508 1.811Zm-1.22-.332a1.732 1.732 0 0 0-.25-.984c-.22-.356-.562-.534-1.019-.534-.418 0-.759.173-1.018.521a1.91 1.91 0 0 0-.38.995l2.666.002ZM27.141 8.097c-.356 0-.664-.018-.92-.047V4.189c.358-.056.72-.083 1.084-.082 1.467 0 2.143.722 2.143 1.899 0 1.357-.798 2.09-2.307 2.09Zm.215-3.495c-.198 0-.367.012-.507.04v2.936c.076.012.221.018.426.018.961 0 1.509-.548 1.509-1.573 0-.914-.495-1.42-1.428-1.42Zm4.199 3.524c-.827 0-1.363-.617-1.363-1.456 0-.874.547-1.497 1.41-1.497.815 0 1.363.589 1.363 1.451 0 .885-.565 1.502-1.41 1.502Zm.024-2.493c-.454 0-.746.425-.746 1.02 0 .582.298 1.007.74 1.007s.74-.454.74-1.02c0-.576-.292-1.007-.734-1.007Zm6.103-.401-.885 2.83h-.577l-.367-1.23a9.324 9.324 0 0 1-.227-.913h-.012a6.129 6.129 0 0 1-.227.914l-.39 1.229h-.583l-.834-2.83h.647l.32 1.345c.076.32.14.623.193.909h.012c.046-.238.121-.536.232-.903l.403-1.35h.512l.385 1.321c.093.32.169.635.228.932h.017c.04-.29.105-.6.192-.932l.344-1.322h.617Zm3.26 2.83h-.629V6.437c0-.5-.192-.752-.57-.752-.374 0-.63.32-.63.694v1.683h-.63V6.041c0-.25-.005-.519-.023-.81h.554l.03.437h.017c.169-.303.512-.495.897-.495.595 0 .985.455.985 1.194v1.695Zm1.735 0h-.63v-4.13h.63v4.13Zm2.294.064c-.827 0-1.363-.617-1.363-1.456 0-.874.547-1.497 1.41-1.497.815 0 1.362.589 1.362 1.451.001.885-.564 1.502-1.41 1.502Zm.023-2.493c-.454 0-.745.425-.745 1.02 0 .582.297 1.007.739 1.007.443 0 .74-.454.74-1.02 0-.576-.29-1.007-.734-1.007Zm3.867 2.429-.046-.326H48.8c-.193.262-.473.39-.828.39-.507 0-.868-.355-.868-.833 0-.698.606-1.06 1.655-1.06v-.052c0-.373-.198-.56-.588-.56-.28 0-.524.07-.74.21l-.127-.413c.261-.163.588-.245.972-.245.74 0 1.113.39 1.113 1.171v1.043c0 .285.012.507.04.676l-.567-.001Zm-.086-1.41c-.7 0-1.05.17-1.05.571 0 .297.18.442.432.442.32 0 .618-.244.618-.576v-.437Zm3.668 1.41-.03-.454h-.017c-.18.343-.485.518-.91.518-.682 0-1.187-.6-1.187-1.444 0-.886.524-1.51 1.24-1.51.378 0 .647.129.798.386h.012V3.933h.63v3.366c0 .274.007.53.024.763h-.56Zm-.093-1.665c0-.397-.263-.734-.663-.734-.467 0-.752.413-.752.995 0 .571.296.962.74.962.395 0 .675-.344.675-.752v-.471Zm4.622 1.73c-.827 0-1.363-.618-1.363-1.457 0-.874.548-1.497 1.41-1.497.816 0 1.363.589 1.363 1.451 0 .885-.564 1.502-1.41 1.502Zm.023-2.494c-.453 0-.745.425-.745 1.02 0 .582.298 1.007.74 1.007s.739-.454.739-1.02c.001-.576-.29-1.007-.734-1.007Zm4.77 2.429h-.63V6.437c0-.5-.191-.752-.57-.752-.373 0-.629.32-.629.694v1.683h-.63V6.041c0-.25-.005-.519-.023-.81h.554l.03.437h.017c.168-.303.512-.495.897-.495.594 0 .985.454.985 1.194v1.695ZM66 5.703h-.693v1.375c0 .35.122.524.367.524.11 0 .204-.012.279-.03l.017.479c-.122.046-.285.07-.488.07-.496 0-.792-.274-.792-.99V5.703h-.413v-.471h.413v-.519l.617-.187v.705H66v.472Zm3.33 2.359h-.628V6.449c0-.507-.192-.763-.571-.763-.326 0-.63.221-.63.67v1.706h-.629v-4.13h.629v1.701h.013a.955.955 0 0 1 .85-.46c.6 0 .966.466.966 1.206v1.683Zm3.412-1.264h-1.888c.012.536.367.838.892.838.28 0 .536-.046.763-.133l.098.437a2.364 2.364 0 0 1-.95.174c-.885 0-1.409-.56-1.409-1.426 0-.868.537-1.52 1.339-1.52.723 0 1.177.535 1.177 1.345.004.096-.003.191-.022.285Zm-.577-.448c0-.437-.22-.746-.622-.746-.362 0-.647.315-.688.746h1.31Z" fill="#fff"></path><defs><linearGradient id="app-store-badge-icon_svg__a" x1="59.407" y1="24.064" x2="59.407" y2="-62.492" gradientUnits="userSpaceOnUse"><stop stop-color="#1A1A1A" stop-opacity=".1"></stop><stop offset=".123" stop-color="#212121" stop-opacity=".151"></stop><stop offset=".308" stop-color="#353535" stop-opacity=".227"></stop><stop offset=".532" stop-color="#575757" stop-opacity=".318"></stop><stop offset=".783" stop-color="#858585" stop-opacity=".421"></stop><stop offset="1" stop-color="#B3B3B3" stop-opacity=".51"></stop></linearGradient></defs></svg>