<svg width="1em" height="1em" viewBox="0 0 81 24" fill="none" xmlns="http://www.w3.org/2000/svg" class="wt-sf-icon"><path fill-rule="evenodd" clip-rule="evenodd" d="M77.999 24H3a3.009 3.009 0 0 1-3-3V3c0-1.653 1.347-3 3.001-3H78a3.006 3.006 0 0 1 3 3v18c0 1.647-1.349 3-3.001 3Z" fill="#000"></path><path fill-rule="evenodd" clip-rule="evenodd" d="M77.999.48A2.528 2.528 0 0 1 80.522 3v18a2.523 2.523 0 0 1-2.523 2.52H3A2.528 2.528 0 0 1 .478 21V3A2.523 2.523 0 0 1 3.001.48H78Zm0-.48H3a3.009 3.009 0 0 0-3 3v18c0 1.653 1.347 3 3.001 3H78a3.006 3.006 0 0 0 3-3V3c0-1.647-1.349-3-3.001-3Z" fill="#A6A6A6"></path><path d="M42.671 7.94c-.54 0-.997-.19-1.357-.565A1.925 1.925 0 0 1 40.765 6c0-.547.185-1.009.549-1.375a1.81 1.81 0 0 1 1.356-.565c.535 0 .99.19 1.357.565.364.378.548.84.548 1.375-.005.547-.19 1.01-.548 1.375-.359.377-.815.565-1.356.565Zm-16.095 0c-.529 0-.988-.188-1.363-.557-.373-.368-.562-.834-.562-1.383s.19-1.014.562-1.382c.368-.37.827-.557 1.363-.557.263 0 .517.052.762.159.24.103.435.243.58.416l.035.043-.404.398-.041-.05c-.228-.272-.534-.405-.938-.405-.36 0-.675.129-.934.383-.26.256-.393.591-.393.997 0 .405.132.74.393.996.26.254.574.383.934.383a1.3 1.3 0 0 0 .96-.383c.149-.15.241-.359.274-.624H26.51v-.56h1.851l.008.051c.013.095.026.192.026.282 0 .516-.155.933-.462 1.242-.348.365-.804.55-1.356.55Zm21.4-.08h-.57l-1.749-2.809.015.506v2.301h-.57V4.14h.65l.019.029 1.643 2.645-.015-.504V4.14h.577v3.72Zm-9.593 0h-.579V4.7h-1.002v-.56h2.582v.56H38.38v3.16h.002Zm-2.052 0h-.577V4.14h.577v3.72Zm-3.241 0h-.577V4.7H31.51v-.56h2.582v.56H33.09v3.16Zm-1.945-.006h-2.211V4.14h2.211v.56h-1.633v1.02h1.474v.554h-1.474v1.02h1.633v.56Zm10.592-.863c.258.258.57.389.934.389.374 0 .68-.128.934-.39.254-.254.382-.587.382-.99 0-.402-.128-.738-.38-.99a1.276 1.276 0 0 0-.934-.39c-.374 0-.68.128-.933.39-.254.254-.382.588-.382.99 0 .403.127.738.379.99Z" fill="#fff"></path><path fill-rule="evenodd" clip-rule="evenodd" d="M40.712 13.053c-1.409 0-2.55 1.073-2.55 2.553 0 1.466 1.149 2.553 2.55 2.553 1.408 0 2.55-1.08 2.55-2.553 0-1.48-1.142-2.553-2.55-2.553Zm0 4.094c-.77 0-1.434-.64-1.434-1.547 0-.92.665-1.547 1.434-1.547.77 0 1.433.627 1.433 1.547.002.913-.663 1.547-1.433 1.547Zm-5.563-4.094c-1.408 0-2.55 1.073-2.55 2.553 0 1.466 1.15 2.553 2.55 2.553 1.408 0 2.55-1.08 2.55-2.553 0-1.48-1.143-2.553-2.55-2.553Zm0 4.094c-.77 0-1.434-.64-1.434-1.547 0-.92.665-1.547 1.434-1.547.77 0 1.434.627 1.434 1.547 0 .913-.664 1.547-1.434 1.547Zm-6.62-3.314v1.08h2.583c-.079.606-.278 1.054-.584 1.36-.378.38-.962.793-1.992.793-1.587 0-2.828-1.286-2.828-2.88 0-1.594 1.24-2.88 2.828-2.88.857 0 1.481.34 1.944.773l.763-.766c-.643-.62-1.5-1.094-2.701-1.094-2.177 0-4.004 1.781-4.004 3.961 0 2.186 1.825 3.96 4.004 3.96 1.175 0 2.058-.385 2.755-1.113.71-.713.936-1.72.936-2.533 0-.253-.02-.48-.06-.673h-3.645c.002-.002.002.012.002.012Zm27.075.84c-.213-.572-.857-1.626-2.177-1.626-1.309 0-2.396 1.034-2.396 2.553 0 1.433 1.076 2.553 2.523 2.553a2.521 2.521 0 0 0 2.117-1.133l-.863-.58c-.286.426-.684.706-1.249.706-.57 0-.97-.26-1.235-.774l3.4-1.414-.12-.284Zm-3.466.854c-.027-.986.763-1.488 1.328-1.488.445 0 .816.22.943.54l-2.271.948ZM49.377 18h1.116v-7.5h-1.116V18Zm-1.833-4.38h-.04c-.252-.3-.73-.573-1.341-.573-1.269 0-2.437 1.121-2.437 2.56 0 1.434 1.162 2.541 2.437 2.541.603 0 1.089-.274 1.34-.58h.04v.366c0 .974-.518 1.5-1.354 1.5-.684 0-1.108-.494-1.281-.907l-.97.407c.278.673 1.022 1.506 2.25 1.506 1.308 0 2.417-.773 2.417-2.66V13.2H47.55v.42h-.006Zm-1.282 3.527c-.77 0-1.414-.646-1.414-1.54 0-.9.644-1.553 1.414-1.553.763 0 1.355.66 1.355 1.553.007.894-.59 1.54-1.355 1.54Zm14.568-6.646h-2.67V18h1.117v-2.84h1.554c1.235 0 2.45-.9 2.45-2.327s-1.21-2.332-2.451-2.332Zm.032 3.612h-1.587v-2.574h1.587c.837 0 1.309.693 1.309 1.287 0 .588-.478 1.287-1.309 1.287Zm6.892-1.073c-.81 0-1.646.36-1.992 1.146l.99.413c.213-.413.603-.554 1.016-.554.578 0 1.162.348 1.175.967v.08a2.492 2.492 0 0 0-1.162-.288c-1.068 0-2.152.587-2.152 1.686 0 1.007.877 1.654 1.853 1.654.75 0 1.162-.34 1.42-.733h.04v.58h1.076v-2.873c0-1.337-.99-2.078-2.264-2.078Zm-.14 4.107c-.365 0-.876-.18-.876-.64 0-.58.638-.8 1.182-.8.492 0 .724.105 1.016.252a1.346 1.346 0 0 1-1.322 1.188Zm6.329-3.947-1.282 3.253h-.04L71.293 13.2h-1.2l1.992 4.547-1.136 2.527h1.162l3.066-7.074h-1.234ZM63.896 18h1.117v-7.5h-1.117V18Z" fill="#fff"></path><path fill-rule="evenodd" clip-rule="evenodd" d="M6.235 4.52c-.173.187-.273.473-.273.847v13.267c0 .374.1.66.279.84l.046.04 7.403-7.433v-.166L6.28 4.48l-.045.04Z" fill="url(#google-play-badge-icon_svg__a)"></path><path fill-rule="evenodd" clip-rule="evenodd" d="m16.153 14.566-2.47-2.48v-.173l2.47-2.48.054.034 2.92 1.667c.836.472.836 1.253 0 1.732l-2.92 1.667-.054.033Z" fill="url(#google-play-badge-icon_svg__b)"></path><path fill-rule="evenodd" clip-rule="evenodd" d="M16.207 14.533 13.684 12l-7.45 7.48c.273.293.73.326 1.242.04l8.73-4.987Z" fill="url(#google-play-badge-icon_svg__c)"></path><path fill-rule="evenodd" clip-rule="evenodd" d="m16.207 9.467-8.731-4.98c-.511-.293-.97-.253-1.241.04L13.684 12l2.523-2.533Z" fill="url(#google-play-badge-icon_svg__d)"></path><path opacity=".2" fill-rule="evenodd" clip-rule="evenodd" d="m16.153 14.48-8.671 4.946c-.484.28-.916.26-1.195.006l-.046.046.046.04c.279.254.71.275 1.195-.005l8.73-4.98-.06-.054Z" fill="#000"></path><path opacity=".12" fill-rule="evenodd" clip-rule="evenodd" d="m19.127 12.78-2.982 1.7.054.053 2.92-1.667c.42-.24.625-.553.625-.866-.025.287-.238.56-.617.78Z" fill="#000"></path><path opacity=".25" fill-rule="evenodd" clip-rule="evenodd" d="m7.476 4.574 11.651 6.646c.379.214.592.494.625.78 0-.313-.206-.627-.625-.866L7.476 4.487c-.836-.48-1.514-.079-1.514.88v.087c0-.96.678-1.354 1.514-.88Z" fill="#fff"></path><defs><linearGradient id="google-play-badge-icon_svg__a" x1="13.026" y1="5.224" x2="1.161" y2="8.372" gradientUnits="userSpaceOnUse"><stop stop-color="#00A0FF"></stop><stop offset=".007" stop-color="#00A1FF"></stop><stop offset=".26" stop-color="#00BEFF"></stop><stop offset=".512" stop-color="#00D2FF"></stop><stop offset=".76" stop-color="#00DFFF"></stop><stop offset="1" stop-color="#00E3FF"></stop></linearGradient><linearGradient id="google-play-badge-icon_svg__b" x1="20.217" y1="12" x2="5.759" y2="12" gradientUnits="userSpaceOnUse"><stop stop-color="#FFE000"></stop><stop offset=".409" stop-color="#FFBD00"></stop><stop offset=".775" stop-color="orange"></stop><stop offset="1" stop-color="#FF9C00"></stop></linearGradient><linearGradient id="google-play-badge-icon_svg__c" x1="14.835" y1="13.378" x2="5.257" y2="29.432" gradientUnits="userSpaceOnUse"><stop stop-color="#FF3A44"></stop><stop offset="1" stop-color="#C31162"></stop></linearGradient><linearGradient id="google-play-badge-icon_svg__d" x1="4.359" y1=".107" x2="8.632" y2="7.277" gradientUnits="userSpaceOnUse"><stop stop-color="#32A071"></stop><stop offset=".069" stop-color="#2DA771"></stop><stop offset=".476" stop-color="#15CF74"></stop><stop offset=".801" stop-color="#06E775"></stop><stop offset="1" stop-color="#00F076"></stop></linearGradient></defs></svg>