<svg width="1em" height="1em" viewBox="0 0 24 24" fill="none" xmlns="http://www.w3.org/2000/svg" class="wt-header-profiledropdown-profile-icon"><path fill-rule="evenodd" clip-rule="evenodd" d="M6.966 15.067A3.3 3.3 0 0 1 9.3 14.1h5.4a3.3 3.3 0 0 1 3.3 3.3v1.35a.6.6 0 1 1-1.2 0V17.4a2.1 2.1 0 0 0-2.1-2.1H9.3a2.1 2.1 0 0 0-2.1 2.1v1.35a.6.6 0 1 1-1.2 0V17.4a3.3 3.3 0 0 1 .966-2.333ZM12 7.2a2.1 2.1 0 1 0 0 4.2 2.1 2.1 0 0 0 0-4.2ZM8.7 9.3a3.3 3.3 0 1 1 6.6 0 3.3 3.3 0 0 1-6.6 0Z" fill="#ff4949"></path><path fill-rule="evenodd" clip-rule="evenodd" d="M12 3.6a8.4 8.4 0 1 0 0 16.8 8.4 8.4 0 0 0 0-16.8ZM2.4 12a9.6 9.6 0 1 1 19.2 0 9.6 9.6 0 0 1-19.2 0Z" fill="#ff4949"></path></svg>