<svg width="1em" height="1em" viewBox="0 0 24 24" fill="none" xmlns="http://www.w3.org/2000/svg" class="wt-badge-pre-i"><path fill-rule="evenodd" clip-rule="evenodd" d="M4.4 4.683c0-1.337 1.21-2.288 2.528-2.288h7.339a1.6 1.6 0 0 1 1.054.396l3.232 2.829a1.6 1.6 0 0 1 .547 1.204v12.171a2.6 2.6 0 0 1-2.6 2.6H6.928c-1.318 0-2.528-.951-2.528-2.287V4.683Zm7.82 6.517a.5.5 0 0 1 .5.5v.305H14v.401a1 1 0 1 0 2 0v-.4h.015c.664 0 1.203.538 1.203 1.202v.802c0 .222-.18.401-.401.401H10.4a.401.401 0 0 1-.401-.4v-.803c0-.664.539-1.203 1.203-1.203h.517V11.7a.5.5 0 0 1 .5-.5Zm-.5.805h-.5v.401a1 1 0 1 0 2 0v-.4h-.5v.394a.5.5 0 1 1-1 0v-.395Zm3.78 0h.5-.5V11.7a.5.5 0 1 0-1 0v.305H14h.5v.395a.5.5 0 0 0 1 0v-.395ZM10 15.612a.4.4 0 0 1 .401-.4h6.416a.4.4 0 0 1 .4.4v2.406c0 .665-.538 1.203-1.202 1.203h-4.812A1.203 1.203 0 0 1 10 18.018v-2.406Z" fill="#000000"></path></svg>