<svg width="1em" height="1em" viewBox="0 0 24 24" fill="currentColor" xmlns="http://www.w3.org/2000/svg" class=""><g clip-path="url(#prepaid-filled-icon_svg__a)"><path fill-rule="evenodd" clip-rule="evenodd" d="M18.476 6.014 15.4 3.37a1.518 1.518 0 0 0-1-.375H7.41a2.327 2.327 0 0 0-1.655.584A2.255 2.255 0 0 0 5 5.142v13.706c.032.599.303 1.16.755 1.563a2.327 2.327 0 0 0 1.655.584h9.114a2.499 2.499 0 0 0 1.753-.711A2.394 2.394 0 0 0 19 18.558V7.147a1.5 1.5 0 0 0-.524-1.134ZM17 14.114h-.648c-.055.28-.167.546-.331.781a2.1 2.1 0 0 1-.621.587 2.67 2.67 0 0 1-1.105.385l2.143 2.278a.45.45 0 0 1 .107.507.45.45 0 0 1-.107.15.468.468 0 0 1-.514.101.468.468 0 0 1-.153-.102L13 15.857a.513.513 0 0 1-.152-.28.555.555 0 0 1 0-.329.52.52 0 0 1 .238-.234.55.55 0 0 1 .323-.066 2.239 2.239 0 0 0 1.439-.253c.22-.133.386-.339.466-.581h-2.076a.48.48 0 0 1-.337-.138.465.465 0 0 1 0-.663.48.48 0 0 1 .337-.137H15.4a.825.825 0 0 0-.343-.487c-.29-.16-.62-.238-.952-.225h-.915a.48.48 0 0 1-.336-.138.465.465 0 0 1 0-.662.48.48 0 0 1 .337-.138H17a.49.49 0 0 1 .334.14c.089.088.14.205.142.329a.46.46 0 0 1-.14.331.48.48 0 0 1-.336.138h-.857c.122.222.206.463.247.712H17a.48.48 0 0 1 .337.137.465.465 0 0 1 0 .663.48.48 0 0 1-.337.138Z" fill="currentColor"></path></g><defs><clipPath id="prepaid-filled-icon_svg__a"><path fill="currentColor" transform="translate(5 2.995)" d="M0 0h14v18H0z"></path></clipPath></defs></svg>